<svg width="17" height="17" viewBox="0 0 17 17" fill="none" xmlns="http://www.w3.org/2000/svg">
<path d="M13.8125 2.125H11.6875V1.0625H10.625V2.125H6.375V1.0625H5.3125V2.125H3.1875C2.60312 2.125 2.125 2.60312 2.125 3.1875V13.8125C2.125 14.3969 2.60312 14.875 3.1875 14.875H13.8125C14.3969 14.875 14.875 14.3969 14.875 13.8125V3.1875C14.875 2.60312 14.3969 2.125 13.8125 2.125ZM13.8125 13.8125H3.1875V6.375H13.8125V13.8125ZM13.8125 5.3125H3.1875V3.1875H5.3125V4.25H6.375V3.1875H10.625V4.25H11.6875V3.1875H13.8125V5.3125Z" fill="#8B8B8B"/>
</svg>
