<svg width="72" height="72" viewBox="0 0 72 72" fill="none" xmlns="http://www.w3.org/2000/svg">
<path d="M61.068 11H55V5C55 4.46957 54.7893 3.96086 54.4142 3.58579C54.0391 3.21071 53.5304 3 53 3C52.4696 3 51.9609 3.21071 51.5858 3.58579C51.2107 3.96086 51 4.46957 51 5V11H20V5C20 4.46957 19.7893 3.96086 19.4142 3.58579C19.0391 3.21071 18.5304 3 18 3C17.4696 3 16.9609 3.21071 16.5858 3.58579C16.2107 3.96086 16 4.46957 16 5V11H10.932C9.0936 11.0003 7.33057 11.7307 6.03063 13.0306C4.73068 14.3306 4.00027 16.0936 4 17.932V62.068C4.00027 63.9064 4.73068 65.6694 6.03063 66.9694C7.33057 68.2693 9.0936 68.9997 10.932 69H61.068C62.9064 68.9997 64.6694 68.2693 65.9694 66.9694C67.2693 65.6694 67.9997 63.9064 68 62.068V17.932C67.9997 16.0936 67.2693 14.3306 65.9694 13.0306C64.6694 11.7307 62.9064 11.0003 61.068 11ZM10.932 15H16V20C16 20.5304 16.2107 21.0391 16.5858 21.4142C16.9609 21.7893 17.4696 22 18 22C18.5304 22 19.0391 21.7893 19.4142 21.4142C19.7893 21.0391 20 20.5304 20 20V15H51V20C51 20.5304 51.2107 21.0391 51.5858 21.4142C51.9609 21.7893 52.4696 22 53 22C53.5304 22 54.0391 21.7893 54.4142 21.4142C54.7893 21.0391 55 20.5304 55 20V15H61.068C61.8456 15 62.5914 15.3089 63.1412 15.8588C63.6911 16.4086 64 17.1544 64 17.932V28H8V17.932C8 17.1544 8.30891 16.4086 8.85876 15.8588C9.40862 15.3089 10.1544 15 10.932 15ZM61.068 65H10.932C10.547 65 10.1657 64.9242 9.80997 64.7768C9.45425 64.6295 9.13102 64.4135 8.85876 64.1412C8.5865 63.869 8.37053 63.5458 8.22319 63.19C8.07584 62.8343 8 62.453 8 62.068V30H64V62.068C64.0001 62.4531 63.9244 62.8344 63.7771 63.1902C63.6298 63.546 63.4138 63.8692 63.1415 64.1415C62.8692 64.4138 62.546 64.6298 62.1902 64.7771C61.8344 64.9244 61.4531 65.0001 61.068 65Z" fill="#005725"/>
<path d="M59.896 56.641C59.343 56.641 58.793 57.088 58.793 57.641C58.793 59.83 58.093 60 57.103 60H50.793C50.5278 60 50.2734 60.1053 50.0859 60.2929C49.8983 60.4804 49.793 60.7348 49.793 61C49.793 61.2652 49.8983 61.5196 50.0859 61.7071C50.2734 61.8946 50.5278 62 50.793 62H57.103C59.398 62 60.734 60.713 60.882 58.172C60.893 58.115 61 58.059 61 58V57.641C61 57.088 60.45 56.641 59.896 56.641Z" fill="#005725"/>
<path d="M59.875 54.411C60.135 54.411 60.395 54.299 60.585 54.12C60.7684 53.9291 60.8721 53.6756 60.875 53.411C60.875 53.148 60.766 52.889 60.585 52.7C60.205 52.331 59.535 52.331 59.165 52.7C58.984 52.89 58.875 53.148 58.875 53.411C58.875 53.682 58.984 53.932 59.165 54.12C59.354 54.3 59.604 54.411 59.875 54.411Z" fill="#005725"/>
<path d="M18.7949 37H17.7949C17.5297 37 17.2754 37.1054 17.0878 37.2929C16.9003 37.4804 16.7949 37.7348 16.7949 38C16.7949 38.2652 16.9003 38.5196 17.0878 38.7071C17.2754 38.8946 17.5297 39 17.7949 39H18.7949C19.0601 39 19.3145 38.8946 19.502 38.7071C19.6896 38.5196 19.7949 38.2652 19.7949 38C19.7949 37.7348 19.6896 37.4804 19.502 37.2929C19.3145 37.1054 19.0601 37 18.7949 37Z" fill="#005725"/>
<path d="M25.7949 37H24.7949C24.5297 37 24.2754 37.1054 24.0878 37.2929C23.9003 37.4804 23.7949 37.7348 23.7949 38C23.7949 38.2652 23.9003 38.5196 24.0878 38.7071C24.2754 38.8946 24.5297 39 24.7949 39H25.7949C26.0601 39 26.3145 38.8946 26.502 38.7071C26.6896 38.5196 26.7949 38.2652 26.7949 38C26.7949 37.7348 26.6896 37.4804 26.502 37.2929C26.3145 37.1054 26.0601 37 25.7949 37Z" fill="#005725"/>
<path d="M32.7949 37H31.7949C31.5297 37 31.2754 37.1054 31.0878 37.2929C30.9003 37.4804 30.7949 37.7348 30.7949 38C30.7949 38.2652 30.9003 38.5196 31.0878 38.7071C31.2754 38.8946 31.5297 39 31.7949 39H32.7949C33.0601 39 33.3145 38.8946 33.502 38.7071C33.6896 38.5196 33.7949 38.2652 33.7949 38C33.7949 37.7348 33.6896 37.4804 33.502 37.2929C33.3145 37.1054 33.0601 37 32.7949 37Z" fill="#005725"/>
<path d="M38.7949 37H37.7949C37.5297 37 37.2754 37.1054 37.0878 37.2929C36.9003 37.4804 36.7949 37.7348 36.7949 38C36.7949 38.2652 36.9003 38.5196 37.0878 38.7071C37.2754 38.8946 37.5297 39 37.7949 39H38.7949C39.0601 39 39.3145 38.8946 39.502 38.7071C39.6896 38.5196 39.7949 38.2652 39.7949 38C39.7949 37.7348 39.6896 37.4804 39.502 37.2929C39.3145 37.1054 39.0601 37 38.7949 37Z" fill="#005725"/>
<path d="M45.7949 37H44.7949C44.5297 37 44.2754 37.1054 44.0878 37.2929C43.9003 37.4804 43.7949 37.7348 43.7949 38C43.7949 38.2652 43.9003 38.5196 44.0878 38.7071C44.2754 38.8946 44.5297 39 44.7949 39H45.7949C46.0601 39 46.3145 38.8946 46.502 38.7071C46.6896 38.5196 46.7949 38.2652 46.7949 38C46.7949 37.7348 46.6896 37.4804 46.502 37.2929C46.3145 37.1054 46.0601 37 45.7949 37Z" fill="#005725"/>
<path d="M51.7949 39H52.7949C53.0601 39 53.3145 38.8946 53.502 38.7071C53.6896 38.5196 53.7949 38.2652 53.7949 38C53.7949 37.7348 53.6896 37.4804 53.502 37.2929C53.3145 37.1054 53.0601 37 52.7949 37H51.7949C51.5297 37 51.2754 37.1054 51.0878 37.2929C50.9003 37.4804 50.7949 37.7348 50.7949 38C50.7949 38.2652 50.9003 38.5196 51.0878 38.7071C51.2754 38.8946 51.5297 39 51.7949 39Z" fill="#005725"/>
<path d="M18.7949 43H17.7949C17.5297 43 17.2754 43.1054 17.0878 43.2929C16.9003 43.4804 16.7949 43.7348 16.7949 44C16.7949 44.2652 16.9003 44.5196 17.0878 44.7071C17.2754 44.8946 17.5297 45 17.7949 45H18.7949C19.0601 45 19.3145 44.8946 19.502 44.7071C19.6896 44.5196 19.7949 44.2652 19.7949 44C19.7949 43.7348 19.6896 43.4804 19.502 43.2929C19.3145 43.1054 19.0601 43 18.7949 43Z" fill="#005725"/>
<path d="M25.7949 43H24.7949C24.5297 43 24.2754 43.1054 24.0878 43.2929C23.9003 43.4804 23.7949 43.7348 23.7949 44C23.7949 44.2652 23.9003 44.5196 24.0878 44.7071C24.2754 44.8946 24.5297 45 24.7949 45H25.7949C26.0601 45 26.3145 44.8946 26.502 44.7071C26.6896 44.5196 26.7949 44.2652 26.7949 44C26.7949 43.7348 26.6896 43.4804 26.502 43.2929C26.3145 43.1054 26.0601 43 25.7949 43Z" fill="#005725"/>
<path d="M32.7949 43H31.7949C31.5297 43 31.2754 43.1054 31.0878 43.2929C30.9003 43.4804 30.7949 43.7348 30.7949 44C30.7949 44.2652 30.9003 44.5196 31.0878 44.7071C31.2754 44.8946 31.5297 45 31.7949 45H32.7949C33.0601 45 33.3145 44.8946 33.502 44.7071C33.6896 44.5196 33.7949 44.2652 33.7949 44C33.7949 43.7348 33.6896 43.4804 33.502 43.2929C33.3145 43.1054 33.0601 43 32.7949 43Z" fill="#005725"/>
<path d="M38.7949 43H37.7949C37.5297 43 37.2754 43.1054 37.0878 43.2929C36.9003 43.4804 36.7949 43.7348 36.7949 44C36.7949 44.2652 36.9003 44.5196 37.0878 44.7071C37.2754 44.8946 37.5297 45 37.7949 45H38.7949C39.0601 45 39.3145 44.8946 39.502 44.7071C39.6896 44.5196 39.7949 44.2652 39.7949 44C39.7949 43.7348 39.6896 43.4804 39.502 43.2929C39.3145 43.1054 39.0601 43 38.7949 43Z" fill="#005725"/>
<path d="M45.7949 43H44.7949C44.5297 43 44.2754 43.1054 44.0878 43.2929C43.9003 43.4804 43.7949 43.7348 43.7949 44C43.7949 44.2652 43.9003 44.5196 44.0878 44.7071C44.2754 44.8946 44.5297 45 44.7949 45H45.7949C46.0601 45 46.3145 44.8946 46.502 44.7071C46.6896 44.5196 46.7949 44.2652 46.7949 44C46.7949 43.7348 46.6896 43.4804 46.502 43.2929C46.3145 43.1054 46.0601 43 45.7949 43Z" fill="#005725"/>
<path d="M51.7949 45H52.7949C53.0601 45 53.3145 44.8946 53.502 44.7071C53.6896 44.5196 53.7949 44.2652 53.7949 44C53.7949 43.7348 53.6896 43.4804 53.502 43.2929C53.3145 43.1054 53.0601 43 52.7949 43H51.7949C51.5297 43 51.2754 43.1054 51.0878 43.2929C50.9003 43.4804 50.7949 43.7348 50.7949 44C50.7949 44.2652 50.9003 44.5196 51.0878 44.7071C51.2754 44.8946 51.5297 45 51.7949 45Z" fill="#005725"/>
<path d="M18.7949 55H17.7949C17.5297 55 17.2754 55.1054 17.0878 55.2929C16.9003 55.4804 16.7949 55.7348 16.7949 56C16.7949 56.2652 16.9003 56.5196 17.0878 56.7071C17.2754 56.8946 17.5297 57 17.7949 57H18.7949C19.0601 57 19.3145 56.8946 19.502 56.7071C19.6896 56.5196 19.7949 56.2652 19.7949 56C19.7949 55.7348 19.6896 55.4804 19.502 55.2929C19.3145 55.1054 19.0601 55 18.7949 55Z" fill="#005725"/>
<path d="M25.7949 55H24.7949C24.5297 55 24.2754 55.1054 24.0878 55.2929C23.9003 55.4804 23.7949 55.7348 23.7949 56C23.7949 56.2652 23.9003 56.5196 24.0878 56.7071C24.2754 56.8946 24.5297 57 24.7949 57H25.7949C26.0601 57 26.3145 56.8946 26.502 56.7071C26.6896 56.5196 26.7949 56.2652 26.7949 56C26.7949 55.7348 26.6896 55.4804 26.502 55.2929C26.3145 55.1054 26.0601 55 25.7949 55Z" fill="#005725"/>
<path d="M32.7949 55H31.7949C31.5297 55 31.2754 55.1054 31.0878 55.2929C30.9003 55.4804 30.7949 55.7348 30.7949 56C30.7949 56.2652 30.9003 56.5196 31.0878 56.7071C31.2754 56.8946 31.5297 57 31.7949 57H32.7949C33.0601 57 33.3145 56.8946 33.502 56.7071C33.6896 56.5196 33.7949 56.2652 33.7949 56C33.7949 55.7348 33.6896 55.4804 33.502 55.2929C33.3145 55.1054 33.0601 55 32.7949 55Z" fill="#005725"/>
<path d="M38.7949 55H37.7949C37.5297 55 37.2754 55.1054 37.0878 55.2929C36.9003 55.4804 36.7949 55.7348 36.7949 56C36.7949 56.2652 36.9003 56.5196 37.0878 56.7071C37.2754 56.8946 37.5297 57 37.7949 57H38.7949C39.0601 57 39.3145 56.8946 39.502 56.7071C39.6896 56.5196 39.7949 56.2652 39.7949 56C39.7949 55.7348 39.6896 55.4804 39.502 55.2929C39.3145 55.1054 39.0601 55 38.7949 55Z" fill="#005725"/>
<path d="M18.7949 49H17.7949C17.5297 49 17.2754 49.1054 17.0878 49.2929C16.9003 49.4804 16.7949 49.7348 16.7949 50C16.7949 50.2652 16.9003 50.5196 17.0878 50.7071C17.2754 50.8946 17.5297 51 17.7949 51H18.7949C19.0601 51 19.3145 50.8946 19.502 50.7071C19.6896 50.5196 19.7949 50.2652 19.7949 50C19.7949 49.7348 19.6896 49.4804 19.502 49.2929C19.3145 49.1054 19.0601 49 18.7949 49Z" fill="#005725"/>
<path d="M25.7949 49H24.7949C24.5297 49 24.2754 49.1054 24.0878 49.2929C23.9003 49.4804 23.7949 49.7348 23.7949 50C23.7949 50.2652 23.9003 50.5196 24.0878 50.7071C24.2754 50.8946 24.5297 51 24.7949 51H25.7949C26.0601 51 26.3145 50.8946 26.502 50.7071C26.6896 50.5196 26.7949 50.2652 26.7949 50C26.7949 49.7348 26.6896 49.4804 26.502 49.2929C26.3145 49.1054 26.0601 49 25.7949 49Z" fill="#005725"/>
<path d="M32.7949 49H31.7949C31.5297 49 31.2754 49.1054 31.0878 49.2929C30.9003 49.4804 30.7949 49.7348 30.7949 50C30.7949 50.2652 30.9003 50.5196 31.0878 50.7071C31.2754 50.8946 31.5297 51 31.7949 51H32.7949C33.0601 51 33.3145 50.8946 33.502 50.7071C33.6896 50.5196 33.7949 50.2652 33.7949 50C33.7949 49.7348 33.6896 49.4804 33.502 49.2929C33.3145 49.1054 33.0601 49 32.7949 49Z" fill="#005725"/>
<path d="M38.7949 49H37.7949C37.5297 49 37.2754 49.1054 37.0878 49.2929C36.9003 49.4804 36.7949 49.7348 36.7949 50C36.7949 50.2652 36.9003 50.5196 37.0878 50.7071C37.2754 50.8946 37.5297 51 37.7949 51H38.7949C39.0601 51 39.3145 50.8946 39.502 50.7071C39.6896 50.5196 39.7949 50.2652 39.7949 50C39.7949 49.7348 39.6896 49.4804 39.502 49.2929C39.3145 49.1054 39.0601 49 38.7949 49Z" fill="#005725"/>
<path d="M45.7949 49H44.7949C44.5297 49 44.2754 49.1054 44.0878 49.2929C43.9003 49.4804 43.7949 49.7348 43.7949 50C43.7949 50.2652 43.9003 50.5196 44.0878 50.7071C44.2754 50.8946 44.5297 51 44.7949 51H45.7949C46.0601 51 46.3145 50.8946 46.502 50.7071C46.6896 50.5196 46.7949 50.2652 46.7949 50C46.7949 49.7348 46.6896 49.4804 46.502 49.2929C46.3145 49.1054 46.0601 49 45.7949 49Z" fill="#005725"/>
<path d="M51.7949 51H52.7949C53.0601 51 53.3145 50.8946 53.502 50.7071C53.6896 50.5196 53.7949 50.2652 53.7949 50C53.7949 49.7348 53.6896 49.4804 53.502 49.2929C53.3145 49.1054 53.0601 49 52.7949 49H51.7949C51.5297 49 51.2754 49.1054 51.0878 49.2929C50.9003 49.4804 50.7949 49.7348 50.7949 50C50.7949 50.2652 50.9003 50.5196 51.0878 50.7071C51.2754 50.8946 51.5297 51 51.7949 51Z" fill="#005725"/>
</svg>
