<svg width="17" height="17" viewBox="0 0 17 17" fill="none" xmlns="http://www.w3.org/2000/svg">
<path fill-rule="evenodd" clip-rule="evenodd" d="M17 10.9286C17 10.4453 16.8081 9.98204 16.4663 9.64082C16.2973 9.47157 16.0966 9.33731 15.8756 9.24573C15.6546 9.15416 15.4178 9.10706 15.1786 9.10714H10.9286C10.4453 9.10714 9.98204 9.299 9.64082 9.64082C9.47157 9.80984 9.33731 10.0106 9.24573 10.2315C9.15416 10.4525 9.10706 10.6894 9.10714 10.9286V15.1786C9.10714 15.6619 9.299 16.1251 9.64082 16.4663C9.80984 16.6356 10.0106 16.7698 10.2315 16.8614C10.4525 16.953 10.6894 17.0001 10.9286 17H15.1786C15.6619 17 16.1251 16.8081 16.4663 16.4663C16.6356 16.2973 16.7698 16.0966 16.8614 15.8756C16.953 15.6546 17.0001 15.4178 17 15.1786V10.9286ZM7.89286 10.9286C7.89286 10.4453 7.701 9.98204 7.35918 9.64082C7.19016 9.47157 6.98942 9.33731 6.76845 9.24573C6.54748 9.15416 6.31062 9.10706 6.07143 9.10714H1.82143C1.33814 9.10714 0.874893 9.299 0.533679 9.64082C0.364424 9.80984 0.230166 10.0106 0.13859 10.2315C0.0470142 10.4525 -8.10937e-05 10.6894 1.04819e-07 10.9286V15.1786C1.04819e-07 15.6619 0.191857 16.1251 0.533679 16.4663C0.702695 16.6356 0.903434 16.7698 1.1244 16.8614C1.34537 16.953 1.58223 17.0001 1.82143 17H6.07143C6.55471 17 7.01796 16.8081 7.35918 16.4663C7.52843 16.2973 7.66269 16.0966 7.75427 15.8756C7.84584 15.6546 7.89294 15.4178 7.89286 15.1786V10.9286ZM15.7857 10.9286V15.1786C15.786 15.2584 15.7704 15.3374 15.74 15.4112C15.7096 15.485 15.6648 15.552 15.6084 15.6084C15.552 15.6648 15.485 15.7096 15.4112 15.74C15.3374 15.7704 15.2584 15.786 15.1786 15.7857H10.9286C10.8488 15.786 10.7697 15.7704 10.6959 15.74C10.6222 15.7096 10.5551 15.6648 10.4987 15.6084C10.4423 15.552 10.3976 15.485 10.3672 15.4112C10.3367 15.3374 10.3212 15.2584 10.3214 15.1786V10.9286C10.3212 10.8488 10.3367 10.7697 10.3672 10.6959C10.3976 10.6222 10.4423 10.5551 10.4987 10.4987C10.5551 10.4423 10.6222 10.3976 10.6959 10.3672C10.7697 10.3367 10.8488 10.3212 10.9286 10.3214H15.1786C15.2584 10.3212 15.3374 10.3367 15.4112 10.3672C15.485 10.3976 15.552 10.4423 15.6084 10.4987C15.6648 10.5551 15.7096 10.6222 15.74 10.6959C15.7704 10.7697 15.786 10.8488 15.7857 10.9286ZM6.67857 10.9286V15.1786C6.67881 15.2584 6.66327 15.3374 6.63285 15.4112C6.60242 15.485 6.55771 15.552 6.50128 15.6084C6.44485 15.6648 6.37783 15.7096 6.30406 15.74C6.23029 15.7704 6.15123 15.786 6.07143 15.7857H1.82143C1.74163 15.786 1.66257 15.7704 1.5888 15.74C1.51503 15.7096 1.448 15.6648 1.39158 15.6084C1.33515 15.552 1.29044 15.485 1.26001 15.4112C1.22959 15.3374 1.21405 15.2584 1.21429 15.1786V10.9286C1.21405 10.8488 1.22959 10.7697 1.26001 10.6959C1.29044 10.6222 1.33515 10.5551 1.39158 10.4987C1.448 10.4423 1.51503 10.3976 1.5888 10.3672C1.66257 10.3367 1.74163 10.3212 1.82143 10.3214H6.07143C6.15123 10.3212 6.23029 10.3367 6.30406 10.3672C6.37783 10.3976 6.44485 10.4423 6.50128 10.4987C6.55771 10.5551 6.60242 10.6222 6.63285 10.6959C6.66327 10.7697 6.67881 10.8488 6.67857 10.9286ZM7.89286 1.82143C7.89286 1.33814 7.701 0.874893 7.35918 0.533679C7.19016 0.364424 6.98942 0.230166 6.76845 0.13859C6.54748 0.0470142 6.31062 -8.10937e-05 6.07143 1.04819e-07H1.82143C1.33814 1.04819e-07 0.874893 0.191857 0.533679 0.533679C0.364424 0.702695 0.230166 0.903434 0.13859 1.1244C0.0470142 1.34537 -8.10937e-05 1.58223 1.04819e-07 1.82143V6.07143C1.04819e-07 6.55471 0.191857 7.01796 0.533679 7.35918C0.702695 7.52843 0.903434 7.66269 1.1244 7.75427C1.34537 7.84584 1.58223 7.89294 1.82143 7.89286H6.07143C6.55471 7.89286 7.01796 7.701 7.35918 7.35918C7.52843 7.19016 7.66269 6.98942 7.75427 6.76845C7.84584 6.54748 7.89294 6.31062 7.89286 6.07143V1.82143ZM17 1.82143C17 1.33814 16.8081 0.874893 16.4663 0.533679C16.2973 0.364424 16.0966 0.230166 15.8756 0.13859C15.6546 0.0470142 15.4178 -8.10937e-05 15.1786 1.04819e-07H10.9286C10.4453 1.04819e-07 9.98204 0.191857 9.64082 0.533679C9.47157 0.702695 9.33731 0.903434 9.24573 1.1244C9.15416 1.34537 9.10706 1.58223 9.10714 1.82143V6.07143C9.10714 6.55471 9.299 7.01796 9.64082 7.35918C9.80984 7.52843 10.0106 7.66269 10.2315 7.75427C10.4525 7.84584 10.6894 7.89294 10.9286 7.89286H15.1786C15.6619 7.89286 16.1251 7.701 16.4663 7.35918C16.6356 7.19016 16.7698 6.98942 16.8614 6.76845C16.953 6.54748 17.0001 6.31062 17 6.07143V1.82143ZM6.67857 1.82143V6.07143C6.67881 6.15123 6.66327 6.23029 6.63285 6.30406C6.60242 6.37783 6.55771 6.44485 6.50128 6.50128C6.44485 6.55771 6.37783 6.60242 6.30406 6.63285C6.23029 6.66327 6.15123 6.67881 6.07143 6.67857H1.82143C1.74163 6.67881 1.66257 6.66327 1.5888 6.63285C1.51503 6.60242 1.448 6.55771 1.39158 6.50128C1.33515 6.44485 1.29044 6.37783 1.26001 6.30406C1.22959 6.23029 1.21405 6.15123 1.21429 6.07143V1.82143C1.21405 1.74163 1.22959 1.66257 1.26001 1.5888C1.29044 1.51503 1.33515 1.448 1.39158 1.39158C1.448 1.33515 1.51503 1.29044 1.5888 1.26001C1.66257 1.22959 1.74163 1.21405 1.82143 1.21429H6.07143C6.15123 1.21405 6.23029 1.22959 6.30406 1.26001C6.37783 1.29044 6.44485 1.33515 6.50128 1.39158C6.55771 1.448 6.60242 1.51503 6.63285 1.5888C6.66327 1.66257 6.67881 1.74163 6.67857 1.82143ZM15.7857 1.82143V6.07143C15.786 6.15123 15.7704 6.23029 15.74 6.30406C15.7096 6.37783 15.6648 6.44485 15.6084 6.50128C15.552 6.55771 15.485 6.60242 15.4112 6.63285C15.3374 6.66327 15.2584 6.67881 15.1786 6.67857H10.9286C10.8488 6.67881 10.7697 6.66327 10.6959 6.63285C10.6222 6.60242 10.5551 6.55771 10.4987 6.50128C10.4423 6.44485 10.3976 6.37783 10.3672 6.30406C10.3367 6.23029 10.3212 6.15123 10.3214 6.07143V1.82143C10.3212 1.74163 10.3367 1.66257 10.3672 1.5888C10.3976 1.51503 10.4423 1.448 10.4987 1.39158C10.5551 1.33515 10.6222 1.29044 10.6959 1.26001C10.7697 1.22959 10.8488 1.21405 10.9286 1.21429H15.1786C15.2584 1.21405 15.3374 1.22959 15.4112 1.26001C15.485 1.29044 15.552 1.33515 15.6084 1.39158C15.6648 1.448 15.7096 1.51503 15.74 1.5888C15.7704 1.66257 15.786 1.74163 15.7857 1.82143Z" fill="#9F9F9F"/>
</svg>
