<svg width="37" height="37" viewBox="0 0 37 37" fill="none" xmlns="http://www.w3.org/2000/svg">
<path d="M12.7188 24.2812H19.6562V26.5938H12.7188V24.2812Z" fill="#FF0000"/>
<path d="M28.034 9.25L30.0162 16.1875H34.6875V13.875H31.7608L30.2577 8.61545C30.1185 8.13284 29.8264 7.7084 29.4255 7.40585C29.0245 7.1033 28.5363 6.93896 28.034 6.9375H26.4749L25.6323 3.99045C25.4931 3.50789 25.2012 3.0835 24.8003 2.78095C24.3994 2.47841 23.9112 2.31403 23.409 2.3125H8.96602C8.46387 2.31402 7.97575 2.47831 7.57487 2.78074C7.174 3.08317 6.882 3.50743 6.74267 3.98987L5.2392 9.25H2.3125V11.5625H6.98375L8.96602 4.625H23.409L24.0698 6.9375H13.591C13.089 6.939 12.601 7.1032 12.2001 7.40547C11.7993 7.70774 11.5072 8.13179 11.3677 8.61406L10.1948 12.7188H8.91978C8.43774 12.7185 7.96771 12.8691 7.5755 13.1493C7.1833 13.4295 6.88858 13.8254 6.73261 14.2815L5.2858 18.5H2.3125V20.8125H4.625V28.9062C4.62576 29.5193 4.86965 30.1071 5.30316 30.5406C5.73667 30.9741 6.32442 31.218 6.9375 31.2188V34.6875H9.25V31.2188H23.125V34.6875H25.4375V31.2188C26.0506 31.218 26.6383 30.9741 27.0718 30.5406C27.5054 30.1071 27.7492 29.5193 27.75 28.9062V20.8125H30.0625V18.5H27.0894L25.643 14.2826C25.487 13.8263 25.1923 13.4301 24.8 13.1497C24.4077 12.8693 23.9375 12.7186 23.4552 12.7188H12.5997L13.591 9.25H28.034ZM25.4375 21.9688V24.2812H23.125V26.5938H25.4375V28.9062H6.9375V26.5938H9.25V24.2812H6.9375V21.9688H25.4375ZM25.041 19.6562H7.33386L8.91978 15.0312H23.4552L25.041 19.6562Z" fill="#FF0000"/>
</svg>
