<svg width="496" height="496" viewBox="0 0 496 496" fill="none" xmlns="http://www.w3.org/2000/svg">
<path fill-rule="evenodd" clip-rule="evenodd" d="M138.145 297.556H484.711C490.919 297.556 495.998 302.635 495.998 308.843V328.121C495.998 334.329 490.919 339.408 484.711 339.408H138.145C131.937 339.408 126.858 334.329 126.858 328.121V308.843C126.858 302.635 131.937 297.556 138.145 297.556ZM99.43 0C123.856 0 143.659 13.921 143.659 46.024C143.659 78.127 123.857 104.153 99.43 104.153C75.003 104.153 55.202 78.127 55.202 46.024C55.202 13.921 75.004 0 99.43 0ZM156.731 484.329V421.288L143.555 355.407H138.146C123.107 355.407 110.859 343.159 110.859 328.12V308.842C110.859 293.803 123.107 281.555 138.146 281.555H156.732V176.473C156.732 173.997 157.716 171.622 159.466 169.871C161.217 168.121 163.592 167.137 166.068 167.137C168.544 167.137 170.919 168.121 172.67 169.871C174.42 171.622 175.404 173.997 175.404 176.473V262.472L198.862 221.842V158.618C198.862 136.484 179.156 123.927 156.731 118.363C119.078 109.021 80.911 108.39 42.132 118.363C19.759 124.117 0 136.478 0 158.618V279.357C0 295.101 9.588 308.806 23.458 315.412V176.473C23.458 173.997 24.4416 171.622 26.1925 169.871C27.9433 168.121 30.3179 167.137 32.794 167.137C35.2701 167.137 37.6447 168.121 39.3955 169.871C41.1464 171.622 42.13 173.997 42.13 176.473L42.129 484.329C42.129 490.757 47.372 496 53.8 496H91.671V342.862C91.671 340.386 92.6546 338.011 94.4054 336.26C96.1563 334.51 98.5309 333.526 101.007 333.526C103.483 333.526 105.858 334.51 107.609 336.26C109.359 338.011 110.343 340.386 110.343 342.862V496H145.06C151.488 496 156.731 490.757 156.731 484.329ZM464.396 355.408L442.326 465.757C438.773 483.521 423.554 495.999 405.437 495.999H218.83C200.714 495.999 185.494 483.522 181.942 465.757L159.872 355.408H464.396ZM402.46 371.845C396.461 370.865 390.752 374.97 389.771 380.969L379.077 446.405C378.097 452.403 382.202 458.113 388.201 459.094C394.199 460.074 399.909 455.968 400.889 449.97L411.583 384.534C412.564 378.534 408.458 372.825 402.46 371.845ZM280.108 371.023C274.045 371.451 269.435 376.76 269.862 382.823L274.524 448.963C274.951 455.026 280.261 459.637 286.324 459.209C292.387 458.782 296.998 453.471 296.57 447.408L291.908 381.268C291.482 375.206 286.172 370.595 280.108 371.023ZM220.364 371.845C214.365 372.825 210.26 378.535 211.24 384.533L221.934 449.969C222.914 455.967 228.624 460.073 234.622 459.093C240.621 458.113 244.726 452.403 243.746 446.404L233.052 380.968C232.072 374.97 226.362 370.864 220.364 371.845ZM342.715 371.023C336.652 370.596 331.342 375.206 330.914 381.269L326.251 447.409C325.824 453.472 330.434 458.782 336.498 459.21C342.561 459.637 347.871 455.027 348.298 448.964L352.96 382.824C353.389 376.76 348.778 371.45 342.715 371.023ZM260.183 176.785C267.127 180.794 269.528 189.755 265.519 196.698L216.526 281.556H182.86L240.27 182.12C244.278 175.177 253.239 172.776 260.183 176.785ZM362.674 176.785C355.73 180.794 353.329 189.755 357.338 196.698L406.331 281.556H439.997L382.587 182.12C378.578 175.177 369.617 172.776 362.674 176.785Z" fill="#005725"/>
</svg>
