<svg width="17" height="10" viewBox="0 0 17 10" fill="none" xmlns="http://www.w3.org/2000/svg">
<path fill-rule="evenodd" clip-rule="evenodd" d="M6.8 5C6.79488 4.77805 6.83504 4.55734 6.91813 4.35081C7.00121 4.14429 7.12554 3.95612 7.28382 3.79736C7.4421 3.63859 7.63114 3.51243 7.83984 3.42627C8.04854 3.34012 8.27269 3.29571 8.49914 3.29565C8.72559 3.2956 8.94976 3.3399 9.1585 3.42595C9.36725 3.512 9.55635 3.63807 9.71471 3.79676C9.87308 3.95545 9.9975 4.14356 10.0807 4.35004C10.1639 4.55652 10.2042 4.77722 10.1991 4.99917C10.1893 5.43463 10.006 5.84903 9.68844 6.15364C9.37086 6.45825 8.94428 6.62888 8.49999 6.62899C8.0557 6.6291 7.62903 6.45868 7.3113 6.15422C6.99357 5.84977 6.81004 5.43546 6.8 5ZM13.8916 1.66667C15.2762 1.66667 15.3 1.98667 15.3 3.0475L13.8916 1.66667ZM13.8916 8.33333L15.3 6.9525C15.3 8.30833 14.977 8.33333 13.8916 8.33333ZM1.7 6.9525L3.10845 8.33333C1.7255 8.33333 1.7 8.01667 1.7 6.9525ZM3.10845 1.66667L1.7 3.0475C1.7 1.69 2.0264 1.66667 3.10845 1.66667ZM11.4878 1.66667L14.8877 5L11.4878 8.33333H5.51225L2.11225 5L5.51225 1.66667H11.4878ZM15.3 0H1.7C1.24913 0 0.81673 0.175595 0.497918 0.488155C0.179107 0.800716 0 1.22464 0 1.66667L0 8.33333C0 8.77536 0.179107 9.19928 0.497918 9.51184C0.81673 9.8244 1.24913 10 1.7 10H15.3C15.7509 10 16.1833 9.8244 16.5021 9.51184C16.8209 9.19928 17 8.77536 17 8.33333V1.66667C17 1.22464 16.8209 0.800716 16.5021 0.488155C16.1833 0.175595 15.7509 0 15.3 0Z" fill="#9F9F9F"/>
</svg>
