<svg width="32" height="36" viewBox="0 0 32 36" fill="none" xmlns="http://www.w3.org/2000/svg">
<path d="M30.6562 11.25H0.84375C0.377789 11.25 0 10.8722 0 10.4062V7.875C0 6.01102 1.51102 4.5 3.375 4.5H6.75V0.84375C6.75 0.377789 7.12779 0 7.59375 0H10.4062C10.8722 0 11.25 0.377789 11.25 0.84375V4.5H20.25V0.84375C20.25 0.377789 20.6278 0 21.0938 0H23.9062C24.3722 0 24.75 0.377789 24.75 0.84375V4.5H28.125C29.989 4.5 31.5 6.01102 31.5 7.875V10.4062C31.5 10.8722 31.1222 11.25 30.6562 11.25ZM0.84375 13.5H30.6562C31.1222 13.5 31.5 13.8778 31.5 14.3438V32.625C31.5 34.489 29.989 36 28.125 36H3.375C1.51102 36 0 34.489 0 32.625V14.3438C0 13.8778 0.377789 13.5 0.84375 13.5ZM24.2786 20.2463L22.298 18.2495C21.9698 17.9187 21.4356 17.9165 21.1048 18.2448L13.6491 25.6405L10.4161 22.3814C10.0879 22.0506 9.55364 22.0484 9.22282 22.3766L7.22616 24.3573C6.89534 24.6855 6.89316 25.2197 7.22137 25.5505L13.0293 31.4054C13.3574 31.7362 13.8916 31.7384 14.2225 31.4101L24.2738 21.4395C24.6047 21.1113 24.6068 20.5771 24.2786 20.2463Z" fill="#01913F"/>
</svg>
