<svg width="27" height="18" viewBox="0 0 27 18" fill="none" xmlns="http://www.w3.org/2000/svg">
<path d="M26.325 0H0.675C0.30375 0 0 0.3 0 0.666667V17.3333C0 17.7 0.30375 18 0.675 18H26.325C26.6963 18 27 17.7 27 17.3333V0.666667C27 0.3 26.6963 0 26.325 0ZM24.705 1.33333L13.5 12.4L2.295 1.33333H24.705ZM1.35 2.26667L8.1675 9L1.35 15.7333V2.26667ZM2.32875 16.6667L9.1125 9.96667L13.0275 13.8333C13.2975 14.1 13.7025 14.1 13.9725 13.8333L17.8875 9.96667L24.6712 16.6667H2.32875ZM25.65 15.7333L18.8325 9L25.65 2.26667V15.7333Z" fill="#9F9F9F"/>
</svg>
