<svg width="512" height="512" viewBox="0 0 512 512" fill="none" xmlns="http://www.w3.org/2000/svg">
<path d="M411.348 366.573L382.18 395.741C378.272 399.526 374.974 397.81 368.734 397.81C351.616 397.81 335.791 405.671 325.292 419.427C313.759 434.528 311.07 455.059 318.362 473.056C321.96 481.541 332.17 485.314 340.496 480.503C337.43 485.723 337.901 492.151 340.755 496.431H226.205V409.91C305.227 362.284 277.972 378.71 283.869 375.157L321.777 396.309C325.897 398.598 330.781 394.532 329.172 390.051L305.124 321.941C304.865 321.217 304.451 320.596 303.935 320.028L294.109 309.995H299.798C345.566 309.995 386.319 331.715 412.332 365.383C412.073 365.799 411.711 366.212 411.348 366.573ZM442.068 452.267V491.261C442.068 494.106 439.741 496.433 436.896 496.433H400.695C418.302 483.227 425.429 463.068 422.778 445.389C422.519 443.217 423.502 440.683 425.261 438.874L439.379 424.755C441.137 433.65 442.068 442.854 442.068 452.267ZM156.803 374.073L117.655 395.897C113.544 398.18 108.652 394.168 110.26 389.691L135.032 319.461C135.291 318.737 135.704 318.065 136.221 317.548L143.639 309.997H142.271C63.817 309.997 0 373.814 0 452.267V491.261C0 494.106 2.327 496.433 5.172 496.433H215.862V409.642C134.928 360.898 162.841 377.71 156.803 374.073Z" fill="#005725"/>
<path d="M144.92 324.022C144.15 324.57 144.036 324.651 144.92 324.022ZM336.826 128.37V101.375C336.826 68.276 314.484 39.109 282.576 30.421L234.635 17.389C225.792 14.959 216.431 14.959 207.536 17.389L159.545 30.421C127.585 39.109 105.295 68.278 105.295 101.375V128.422C141.03 109.805 180.697 100.082 221.035 100.082C261.373 100.082 301.09 109.805 336.826 128.37Z" fill="#005725"/>
<path d="M351.358 155.211C351.048 150.919 348.669 146.988 344.946 144.765C307.504 122.32 264.632 110.426 221.035 110.426C177.49 110.426 134.67 122.321 97.2279 144.765C93.5049 146.988 91.1259 150.919 90.8149 155.211C90.3239 163.265 96.3009 167.548 103.587 170.939C88.0839 185.167 95.6089 210.549 116 214.322L117.293 224.303C121.327 255.85 139.324 282.638 164.51 298.878V310.059C164.088 310.361 148.271 321.635 144.921 324.022L125.114 380.289L154.954 363.637C156.521 362.696 158.487 362.767 160.126 363.689C166.044 367.262 139.01 350.94 216.392 397.66V395.896C215.902 395.181 190.911 358.733 192.501 361.051C184.014 348.689 177.974 334.637 174.855 320.148V304.774C188.87 311.704 204.592 315.583 221.037 315.583C237.224 315.583 253.049 311.86 267.271 304.826V320.033C264.425 335.067 258.366 349.69 249.61 362.386C249.255 362.903 224.39 399.081 225.974 396.775V397.833C301.171 352.516 275.236 368.147 280.846 364.765C282.449 363.782 284.415 363.731 286.018 364.662L314.616 380.59L295.533 326.444C295.078 326.026 279.7 311.912 277.613 309.998V298.983C302.742 283.02 320.827 255.708 324.881 224.305L326.122 214.324C337.862 212.152 346.757 201.861 346.757 189.501C346.757 182.152 343.544 175.571 338.51 170.94C345.849 167.637 351.958 163.207 351.358 155.211ZM321.518 204.392C318.932 204.392 316.76 206.357 316.398 208.943L314.588 223.009C308.549 269.626 268.991 305.238 221.034 305.238C173.418 305.238 133.498 269.496 127.584 223.009L125.774 208.943C125.412 206.357 123.24 204.392 120.602 204.392C112.379 204.392 105.656 197.721 105.656 189.498C105.656 181.12 112.224 174.552 120.602 174.552C120.62 174.552 120.633 174.543 120.65 174.543C125.811 174.392 130.994 173.245 135.909 170.933C190.004 145.334 252.114 145.334 306.21 170.933C310.703 173.039 315.552 174.104 320.429 174.335C320.792 174.414 321.133 174.552 321.518 174.552C329.741 174.552 336.413 181.276 336.413 189.498C336.413 197.72 329.741 204.392 321.518 204.392ZM499.059 384.364C489.336 394.087 475.994 398.689 462.237 396.931C456.91 396.311 451.221 398.327 447.136 402.413L417.968 431.581C413.883 435.667 411.866 441.304 412.537 446.682C414.279 459.233 410.209 473.277 399.918 483.504C387.057 496.365 368.011 499.791 351.977 493.071C348.605 491.766 347.637 487.274 350.271 484.641L363.82 471.143C367.563 467.4 367.669 461.08 363.82 457.231C360.097 453.508 353.632 453.508 349.908 457.231L336.359 470.78C333.842 473.296 329.386 472.546 327.929 469.073C322.034 454.541 324.153 437.94 333.514 425.683C343.185 413.013 358.337 406.6 374.111 408.462C379.696 409.135 385.385 407.118 389.47 403.031L418.638 373.863C422.672 369.829 424.74 364.089 424.069 358.555C422.156 342.781 428.568 327.629 441.239 317.958C453.495 308.598 470.097 306.477 484.629 312.373C487.921 313.647 489.017 318.122 486.336 320.803L472.787 334.352C468.988 338.15 468.982 344.408 472.787 348.212C476.51 351.935 482.974 351.935 486.699 348.212L500.248 334.714C502.692 332.164 507.15 332.844 508.678 336.369C515.453 352.921 511.678 371.745 499.059 384.364Z" fill="#005725"/>
</svg>
