<svg width="496" height="496" viewBox="0 0 496 496" fill="none" xmlns="http://www.w3.org/2000/svg">
<rect x="0.5" y="0.5" width="494.998" height="495" stroke="#005725"/>
<path d="M438.6 148.703V410.992C438.6 423.053 438.454 435.162 438.6 447.223V447.708L462.818 423.489H50.7138C45.1435 423.489 39.5732 423.441 34.003 423.489H33.2764L57.495 447.708V185.419C57.495 173.358 57.6404 161.248 57.495 149.187V148.703L33.2764 172.922H445.381C450.951 172.922 456.522 172.97 462.092 172.922H462.818C469.018 172.922 475.557 170.209 479.965 165.85C484.179 161.636 487.328 154.758 487.037 148.703C486.746 142.455 484.712 135.964 479.965 131.556C475.218 127.197 469.406 124.484 462.818 124.484H50.7138C45.1435 124.484 39.5732 124.436 34.003 124.484H33.2764C20.1983 124.484 9.05775 135.577 9.05775 148.703V410.992C9.05775 423.053 8.91244 435.162 9.05775 447.223V447.708C9.05775 460.786 20.1499 471.927 33.2764 471.927H445.381C450.951 471.927 456.522 471.975 462.092 471.927H462.818C475.896 471.927 487.037 460.834 487.037 447.708V185.419C487.037 173.358 487.182 161.248 487.037 149.187V148.703C487.037 142.503 484.325 135.964 479.965 131.556C475.751 127.342 468.873 124.194 462.818 124.484C456.57 124.775 450.079 126.809 445.672 131.556C441.361 136.352 438.6 142.164 438.6 148.703Z" fill="#005725"/>
<path d="M462.818 124.533H50.7137C45.1434 124.533 39.5732 124.484 34.0029 124.533H33.2763C38.9919 138.337 44.7075 152.094 50.4231 165.898L82.3917 131.895C99.3932 113.828 116.395 95.8094 133.348 77.7422C137.223 73.625 141.146 69.4594 145.021 65.3422C139.306 67.7156 133.59 70.089 127.874 72.414H338.77C348.458 72.414 358.145 72.5594 367.833 72.414H368.269C362.553 70.0406 356.838 67.6672 351.122 65.3422L383.091 99.3453C400.092 117.412 417.093 135.431 434.047 153.498C437.922 157.616 441.845 161.781 445.72 165.898C449.886 170.355 456.812 172.97 462.867 172.97C468.825 172.97 475.896 170.355 480.014 165.898C484.228 161.297 487.376 155.242 487.085 148.752C486.795 142.212 484.518 136.448 480.014 131.605C470.375 121.384 460.784 111.164 451.145 100.944C434.725 83.5062 418.353 66.0687 401.933 48.6797C397.04 43.4484 392.1 38.2656 387.208 33.0344C382.219 27.7062 376.019 24.1219 368.22 23.9765H135.237C130.877 23.9765 125.598 23.4922 121.432 24.8484C113.101 27.5609 108.499 33.4703 102.832 39.4765C87.5745 55.6547 72.3652 71.8328 57.1075 88.0594C44.1263 101.864 31.1451 115.62 18.1639 129.425C17.4857 130.152 16.7592 130.927 16.0811 131.653C9.34828 138.822 7.21704 148.994 11.092 158.1C14.8217 166.867 23.492 172.97 33.2279 172.97H445.332C450.903 172.97 456.473 173.019 462.043 172.97H462.77C468.97 172.97 475.509 170.258 479.917 165.898C484.131 161.684 487.279 154.806 486.989 148.752C486.698 142.503 484.664 136.012 479.917 131.605C475.218 127.294 469.406 124.533 462.818 124.533Z" fill="#005725"/>
<path d="M277.255 148.703V281.519C289.413 274.544 301.571 267.569 313.68 260.594C297.696 252.214 281.711 243.834 265.679 235.455C263.644 234.389 261.61 233.275 259.527 232.209C255.749 230.32 251.632 228.673 247.273 228.867C242.816 229.061 239.038 230.127 235.018 232.161C234.824 232.258 234.63 232.355 234.437 232.5C233.371 233.081 232.257 233.614 231.191 234.195C221.891 239.088 212.591 243.931 203.291 248.823C195.832 252.747 188.373 256.67 180.865 260.545C193.023 267.52 205.181 274.495 217.29 281.47V148.655L193.071 172.873H301.425C307.625 172.873 314.164 170.161 318.572 165.802C322.786 161.588 325.935 154.709 325.644 148.655C325.353 142.406 323.319 135.916 318.572 131.508C313.825 127.148 308.013 124.436 301.425 124.436H193.071C179.993 124.436 168.853 135.528 168.853 148.655V281.47C168.853 289.995 173.503 298.084 180.865 302.395C188.615 306.948 197.527 306.464 205.326 302.395C221.116 294.113 236.955 285.83 252.746 277.547C255.022 276.384 257.251 275.173 259.527 274.011H235.066C250.857 282.294 266.696 290.577 282.486 298.859C284.763 300.022 286.991 301.233 289.268 302.395C297.018 306.464 305.979 306.948 313.729 302.395C321.091 298.084 325.741 290.044 325.741 281.47V148.655C325.741 142.455 323.028 135.916 318.669 131.508C314.455 127.294 307.577 124.145 301.522 124.436C295.274 124.727 288.783 126.761 284.375 131.508C280.016 136.352 277.255 142.164 277.255 148.703Z" fill="#005725"/>
</svg>
