<svg width="29" height="29" viewBox="0 0 29 29" fill="none" xmlns="http://www.w3.org/2000/svg">
<path d="M28.1441 25.8875L22.741 20.5002C24.4842 18.2793 25.4302 15.5367 25.4266 12.7133C25.4266 10.1989 24.681 7.74088 23.2841 5.65018C21.8871 3.55949 19.9016 1.92999 17.5785 0.967749C15.2554 0.00550844 12.6992 -0.246258 10.2331 0.244289C7.76694 0.734835 5.50164 1.94566 3.72365 3.72365C1.94566 5.50164 0.734835 7.76694 0.244289 10.2331C-0.246258 12.6992 0.00550844 15.2554 0.967749 17.5785C1.92999 19.9016 3.55949 21.8871 5.65018 23.2841C7.74088 24.681 10.1989 25.4266 12.7133 25.4266C15.5367 25.4302 18.2793 24.4842 20.5002 22.741L25.8875 28.1441C26.0352 28.2931 26.211 28.4113 26.4047 28.492C26.5983 28.5727 26.806 28.6142 27.0158 28.6142C27.2256 28.6142 27.4333 28.5727 27.627 28.492C27.8206 28.4113 27.9964 28.2931 28.1441 28.1441C28.2931 27.9964 28.4113 27.8206 28.492 27.627C28.5727 27.4333 28.6142 27.2256 28.6142 27.0158C28.6142 26.806 28.5727 26.5983 28.492 26.4047C28.4113 26.211 28.2931 26.0352 28.1441 25.8875ZM3.17834 12.7133C3.17834 10.8275 3.73755 8.98399 4.78527 7.41597C5.83299 5.84795 7.32215 4.62582 9.06444 3.90414C10.8067 3.18246 12.7239 2.99364 14.5735 3.36155C16.4231 3.72946 18.1221 4.63758 19.4556 5.97107C20.7891 7.30456 21.6972 9.00353 22.0651 10.8531C22.433 12.7027 22.2442 14.6199 21.5225 16.3622C20.8008 18.1045 19.5787 19.5937 18.0107 20.6414C16.4427 21.6891 14.5992 22.2483 12.7133 22.2483C10.1845 22.2483 7.75923 21.2437 5.97107 19.4556C4.18291 17.6674 3.17834 15.2422 3.17834 12.7133Z" fill="#005725"/>
</svg>
