<svg width="25" height="25" viewBox="0 0 25 25" fill="none" xmlns="http://www.w3.org/2000/svg">
<path d="M18.625 8.29167H20.7083C20.9846 8.29167 21.2496 8.40141 21.4449 8.59676C21.6403 8.79211 21.75 9.05707 21.75 9.33333V21.8333C21.75 22.1096 21.6403 22.3746 21.4449 22.5699C21.2496 22.7653 20.9846 22.875 20.7083 22.875H4.04167C3.7654 22.875 3.50045 22.7653 3.3051 22.5699C3.10975 22.3746 3 22.1096 3 21.8333V9.33333C3 9.05707 3.10975 8.79211 3.3051 8.59676C3.50045 8.40141 3.7654 8.29167 4.04167 8.29167H6.125V7.25C6.125 5.5924 6.78348 4.00269 7.95558 2.83058C9.12769 1.65848 10.7174 1 12.375 1C14.0326 1 15.6223 1.65848 16.7944 2.83058C17.9665 4.00269 18.625 5.5924 18.625 7.25V8.29167ZM5.08333 10.375V20.7917H19.6667V10.375H5.08333ZM11.3333 14.5417H13.4167V16.625H11.3333V14.5417ZM7.16667 14.5417H9.25V16.625H7.16667V14.5417ZM15.5 14.5417H17.5833V16.625H15.5V14.5417ZM16.5417 8.29167V7.25C16.5417 6.14493 16.1027 5.08512 15.3213 4.30372C14.5399 3.52232 13.4801 3.08333 12.375 3.08333C11.2699 3.08333 10.2101 3.52232 9.42872 4.30372C8.64732 5.08512 8.20833 6.14493 8.20833 7.25V8.29167H16.5417Z" fill="#9F9F9F"/>
</svg>
