<svg width="13" height="15" viewBox="0 0 13 15" fill="none" xmlns="http://www.w3.org/2000/svg">
<path d="M8.69991 3.02979V6.60004H11.0999V3.02979L11.394 1.55894C11.4072 1.49346 11.398 1.4255 11.3683 1.36588L10.7683 0.165882C10.7174 0.0642218 10.6136 6.10352e-05 10.4999 6.10352e-05H9.2999C9.18623 6.10352e-05 9.08237 0.0642218 9.03155 0.165879L8.43155 1.36587C8.40181 1.42549 8.39259 1.49346 8.40577 1.55894L8.69991 3.02979Z" fill="#8B8B8B"/>
<path d="M3.59993 13.2C3.76561 13.2 3.89992 13.0657 3.89992 12.9C3.89992 12.7344 3.76561 12.6 3.59993 12.6C3.43424 12.6 3.29993 12.7344 3.29993 12.9C3.29993 13.0657 3.43424 13.2 3.59993 13.2Z" fill="#8B8B8B"/>
<path d="M7.19997 3.06597C7.19997 1.84385 6.58826 0.715924 5.56375 0.0486904C5.47146 -0.0115133 5.35354 -0.0162023 5.25701 0.0363845C5.16018 0.0888273 5.09998 0.190047 5.09998 0.300056V2.30542L3.59999 3.30547L2.09999 2.30542V0.300056C2.09999 0.190047 2.03979 0.0888273 1.94296 0.0363845C1.84643 -0.0162023 1.72851 -0.0115163 1.63622 0.0486904C0.611715 0.715924 0 1.84385 0 3.06597C0 4.45463 0.787644 5.70267 2.02426 6.30326L1.61279 12.8848C1.57822 13.4392 1.7685 13.9674 2.14892 14.3723C2.52919 14.7771 3.04452 15 3.59999 15C4.15545 15 4.67078 14.7771 5.05105 14.3723C5.43147 13.9674 5.62175 13.4392 5.58718 12.8848L5.17571 6.30325C6.41233 5.70267 7.19997 4.45463 7.19997 3.06597ZM3.59999 13.8C3.1037 13.8 2.69999 13.3963 2.69999 12.9C2.69999 12.4037 3.1037 12 3.59999 12C4.09627 12 4.49998 12.4037 4.49998 12.9C4.49998 13.3963 4.09627 13.8 3.59999 13.8ZM7.79997 7.80003H12C12.1656 7.80003 12.3 7.6657 12.3 7.50003C12.3 7.33434 12.1656 7.20003 12 7.20003H7.79997C7.63428 7.20003 7.49997 7.33434 7.49997 7.50003C7.49997 7.6657 7.63428 7.80003 7.79997 7.80003ZM12.5683 9.16584L12.1854 8.40003H7.61452L7.23161 9.16584C7.21081 9.20745 7.19997 9.25344 7.19997 9.30002V12.3C7.19997 13.7887 8.41125 15 9.89996 15C11.3887 15 12.6 13.7887 12.6 12.3V9.30002C12.6 9.25344 12.5891 9.20745 12.5683 9.16584ZM9.59996 13.5C9.59996 13.6657 9.46564 13.8 9.29996 13.8C9.13429 13.8 8.99996 13.6657 8.99996 13.5V9.90002C8.99996 9.73434 9.13429 9.60002 9.29996 9.60002C9.46564 9.60002 9.59996 9.73434 9.59996 9.90002V13.5ZM10.8 13.5C10.8 13.6657 10.6656 13.8 10.5 13.8C10.3343 13.8 10.2 13.6657 10.2 13.5V9.90002C10.2 9.73434 10.3343 9.60002 10.5 9.60002C10.6656 9.60002 10.8 9.73434 10.8 9.90002V13.5Z" fill="#8B8B8B"/>
</svg>
