<svg width="34" height="40" viewBox="0 0 34 40" fill="none" xmlns="http://www.w3.org/2000/svg">
<path d="M23.1997 8.07951V17.6002H29.5996V8.07951L30.384 4.15726C30.4192 3.98265 30.3946 3.80141 30.3153 3.64242L28.7153 0.442435C28.5797 0.17134 28.3028 0.000244141 27.9997 0.000244141H24.7997C24.4965 0.000244141 24.2196 0.17134 24.084 0.442427L22.484 3.64241C22.4048 3.8014 22.3801 3.98264 22.4153 4.15725L23.1997 8.07951Z" fill="#005725"/>
<path d="M9.5998 35.2001C10.0416 35.2001 10.3998 34.8419 10.3998 34.4001C10.3998 33.9583 10.0416 33.6001 9.5998 33.6001C9.15798 33.6001 8.7998 33.9583 8.7998 34.4001C8.7998 34.8419 9.15798 35.2001 9.5998 35.2001Z" fill="#005725"/>
<path d="M19.1999 8.17591C19.1999 4.91694 17.5687 1.90913 14.8367 0.129841C14.5906 -0.0307022 14.2761 -0.0432061 14.0187 0.0970254C13.7605 0.236873 13.5999 0.506792 13.5999 0.800151V6.14779L9.59996 8.81458L5.59998 6.14779V0.800151C5.59998 0.506792 5.43944 0.236873 5.18123 0.0970254C4.92381 -0.0432061 4.60936 -0.0307102 4.36326 0.129841C1.63124 1.90913 0 4.91694 0 8.17591C0 11.879 2.10038 15.2071 5.39803 16.8087L4.30077 34.3594C4.20858 35.8379 4.716 37.2465 5.73045 38.3262C6.7445 39.4055 8.11872 40 9.59996 40C11.0812 40 12.4554 39.4055 13.4695 38.3262C14.4839 37.2465 14.9913 35.8379 14.8992 34.3594L13.8019 16.8087C17.0995 15.2071 19.1999 11.879 19.1999 8.17591ZM9.59996 36.8C8.27653 36.8 7.19997 35.7235 7.19997 34.4C7.19997 33.0766 8.27653 32 9.59996 32C10.9234 32 12 33.0766 12 34.4C12 35.7235 10.9234 36.8 9.59996 36.8ZM20.7999 20.8001H31.9999C32.4417 20.8001 32.7999 20.4419 32.7999 20.0001C32.7999 19.5582 32.4417 19.2001 31.9999 19.2001H20.7999C20.3581 19.2001 19.9999 19.5582 19.9999 20.0001C19.9999 20.4419 20.3581 20.8001 20.7999 20.8001ZM33.5155 24.4422L32.4944 22.4001H20.3054L19.2843 24.4422C19.2288 24.5532 19.1999 24.6758 19.1999 24.8001V32.8C19.1999 36.7699 22.43 40 26.3999 40C30.3698 40 33.5999 36.7699 33.5999 32.8V24.8001C33.5999 24.6758 33.571 24.5532 33.5155 24.4422ZM25.5999 36C25.5999 36.4418 25.2417 36.8 24.7999 36.8C24.3581 36.8 23.9999 36.4418 23.9999 36V26.4001C23.9999 25.9583 24.3581 25.6001 24.7999 25.6001C25.2417 25.6001 25.5999 25.9583 25.5999 26.4001V36ZM28.7999 36C28.7999 36.4418 28.4417 36.8 27.9999 36.8C27.5581 36.8 27.1999 36.4418 27.1999 36V26.4001C27.1999 25.9583 27.5581 25.6001 27.9999 25.6001C28.4417 25.6001 28.7999 25.9583 28.7999 26.4001V36Z" fill="#005725"/>
</svg>
