<svg width="17" height="17" viewBox="0 0 17 17" fill="none" xmlns="http://www.w3.org/2000/svg">
<path d="M17 8.5C17 3.8165 13.1835 0 8.5 0C3.8165 0 0 3.8165 0 8.5C0 10.965 1.0625 13.1835 2.7455 14.739C2.7455 14.7475 2.7455 14.7475 2.737 14.756C2.822 14.841 2.924 14.909 3.009 14.9855C3.06 15.028 3.1025 15.0705 3.1535 15.1045C3.3065 15.232 3.4765 15.351 3.638 15.47C3.6975 15.5125 3.7485 15.5465 3.808 15.589C3.9695 15.6995 4.1395 15.8015 4.318 15.895C4.3775 15.929 4.4455 15.9715 4.505 16.0055C4.675 16.099 4.8535 16.184 5.0405 16.2605C5.1085 16.2945 5.1765 16.3285 5.2445 16.354C5.4315 16.4305 5.6185 16.4985 5.8055 16.558C5.8735 16.5835 5.9415 16.609 6.0095 16.626C6.2135 16.6855 6.4175 16.7365 6.6215 16.7875C6.681 16.8045 6.7405 16.8215 6.8085 16.83C7.0465 16.881 7.2845 16.915 7.531 16.9405C7.565 16.9405 7.599 16.949 7.633 16.9575C7.922 16.983 8.211 17 8.5 17C8.789 17 9.078 16.983 9.3585 16.9575C9.3925 16.9575 9.4265 16.949 9.4605 16.9405C9.707 16.915 9.945 16.881 10.183 16.83C10.2425 16.8215 10.302 16.796 10.37 16.7875C10.574 16.7365 10.7865 16.694 10.982 16.626C11.05 16.6005 11.118 16.575 11.186 16.558C11.373 16.49 11.5685 16.4305 11.747 16.354C11.815 16.3285 11.883 16.2945 11.951 16.2605C12.1295 16.184 12.308 16.099 12.4865 16.0055C12.5545 15.9715 12.614 15.929 12.6735 15.895C12.8435 15.793 13.0135 15.6995 13.1835 15.589C13.243 15.555 13.294 15.5125 13.3535 15.47C13.5235 15.351 13.685 15.232 13.838 15.1045C13.889 15.062 13.9315 15.0195 13.9825 14.9855C14.076 14.909 14.1695 14.8325 14.2545 14.756C14.2545 14.7475 14.2545 14.7475 14.246 14.739C15.9375 13.1835 17 10.965 17 8.5ZM12.699 12.7245C10.3955 11.1775 6.6215 11.1775 4.301 12.7245C3.927 12.971 3.621 13.26 3.366 13.5745C2.074 12.2655 1.275 10.472 1.275 8.5C1.275 4.5135 4.5135 1.275 8.5 1.275C12.4865 1.275 15.725 4.5135 15.725 8.5C15.725 10.472 14.926 12.2655 13.634 13.5745C13.3875 13.26 13.073 12.971 12.699 12.7245Z" fill="#8B8B8B"/>
<path d="M8.5 4.19025C6.7405 4.19025 5.3125 5.61825 5.3125 7.37776C5.3125 9.10326 6.664 10.5058 8.4575 10.5568H8.534H8.5935H8.6105C10.3275 10.4973 11.679 9.10326 11.6875 7.37776C11.6875 5.61825 10.2595 4.19025 8.5 4.19025Z" fill="#8B8B8B"/>
</svg>
