<svg width="20" height="12" viewBox="0 0 20 12" fill="none" xmlns="http://www.w3.org/2000/svg">
<path fill-rule="evenodd" clip-rule="evenodd" d="M8 6C7.99398 5.73366 8.04123 5.4688 8.13897 5.22098C8.23672 4.97315 8.38299 4.74735 8.5692 4.55683C8.75542 4.36631 8.97782 4.21491 9.22334 4.11153C9.46887 4.00814 9.73258 3.95485 9.99899 3.95478C10.2654 3.95472 10.5291 4.00788 10.7747 4.11114C11.0203 4.2144 11.2428 4.36569 11.4291 4.55611C11.6154 4.74654 11.7618 4.97227 11.8596 5.22005C11.9575 5.46782 12.0049 5.73266 11.999 5.999C11.9874 6.52156 11.7718 7.01884 11.3982 7.38437C11.0245 7.74991 10.5227 7.95465 9.99999 7.95478C9.4773 7.95492 8.97533 7.75042 8.60153 7.38507C8.22773 7.01972 8.01182 6.52256 8 6ZM16.343 2C17.972 2 18 2.384 18 3.657L16.343 2ZM16.343 10L18 8.343C18 9.97 17.62 10 16.343 10ZM2 8.343L3.657 10C2.03 10 2 9.62 2 8.343ZM3.657 2L2 3.657C2 2.028 2.384 2 3.657 2ZM13.515 2L17.515 6L13.515 10H6.485L2.485 6L6.485 2H13.515ZM18 0H2C1.46957 0 0.960859 0.210714 0.585786 0.585786C0.210714 0.960859 0 1.46957 0 2L0 10C0 10.5304 0.210714 11.0391 0.585786 11.4142C0.960859 11.7893 1.46957 12 2 12H18C18.5304 12 19.0391 11.7893 19.4142 11.4142C19.7893 11.0391 20 10.5304 20 10V2C20 1.46957 19.7893 0.960859 19.4142 0.585786C19.0391 0.210714 18.5304 0 18 0Z" fill="black"/>
</svg>
