<svg width="31" height="23" viewBox="0 0 31 23" fill="none" xmlns="http://www.w3.org/2000/svg">
<path d="M30.0045 10.0875L2.00446 0.08748C1.45026 -0.11125 0.829159 0.0352399 0.419499 0.45955C0.0103194 0.88435 -0.111751 1.50935 0.107489 2.05721L3.88435 11.5001L0.107489 20.9429C-0.111751 21.4908 0.0103194 22.1158 0.419499 22.5406C0.707589 22.8394 1.09968 23.0001 1.50055 23.0001C1.6695 23.0001 1.83991 22.9718 2.00446 22.9127L30.0045 12.9127C30.6016 12.6993 31.0001 12.1339 31.0001 11.5001C31.0001 10.8663 30.6016 10.3009 30.0045 10.0875ZM4.12799 18.9688L6.5155 13.0001H11.6592C12.4878 13.0001 13.1592 12.3287 13.1592 11.5001C13.1592 10.6715 12.4878 10.0001 11.6592 10.0001H6.51551L4.12799 4.03133L25.0401 11.5001L4.12799 18.9688Z" fill="white"/>
</svg>
