<svg width="19" height="23" viewBox="0 0 19 23" fill="none" xmlns="http://www.w3.org/2000/svg">
<path d="M13.119 4.56877V9.9525H16.7381V4.56877L17.1816 2.35082C17.2015 2.25209 17.1876 2.1496 17.1427 2.0597L16.238 0.250171C16.1613 0.0968728 16.0047 0.00012207 15.8333 0.00012207H14.0238C13.8524 0.00012207 13.6958 0.0968728 13.6191 0.250167L12.7143 2.05969C12.6695 2.14959 12.6556 2.25208 12.6755 2.35082L13.119 4.56877Z" fill="black"/>
<path d="M5.42846 19.9049C5.6783 19.9049 5.88084 19.7023 5.88084 19.4525C5.88084 19.2027 5.6783 19.0001 5.42846 19.0001C5.17861 19.0001 4.97607 19.2027 4.97607 19.4525C4.97607 19.7023 5.17861 19.9049 5.42846 19.9049Z" fill="black"/>
<path d="M10.8571 4.6233C10.8571 2.78042 9.93471 1.07957 8.38981 0.0734224C8.25065 -0.0173614 8.07284 -0.0244321 7.92727 0.0548657C7.78126 0.133946 7.69048 0.28658 7.69048 0.452468V3.47644L5.42857 4.98445L3.16667 3.47644V0.452468C3.16667 0.28658 3.07588 0.133946 2.92987 0.0548657C2.78431 -0.0244321 2.60649 -0.017366 2.46733 0.0734224C0.922432 1.07957 0 2.78042 0 4.6233C0 6.71733 1.18772 8.5993 3.05247 9.50495L2.43199 19.4295C2.37986 20.2656 2.66679 21.0621 3.24045 21.6726C3.81387 22.2829 4.59096 22.6191 5.42857 22.6191C6.26618 22.6191 7.04327 22.2829 7.6167 21.6726C8.19035 21.0621 8.47728 20.2656 8.42515 19.4295L7.80468 9.50494C9.66942 8.5993 10.8571 6.71732 10.8571 4.6233ZM5.42857 20.8096C4.6802 20.8096 4.07143 20.2008 4.07143 19.4525C4.07143 18.7041 4.6802 18.0953 5.42857 18.0953C6.17695 18.0953 6.78571 18.7041 6.78571 19.4525C6.78571 20.2008 6.17695 20.8096 5.42857 20.8096ZM11.7619 11.762H18.0952C18.3451 11.762 18.5476 11.5594 18.5476 11.3096C18.5476 11.0598 18.3451 10.8572 18.0952 10.8572H11.7619C11.5121 10.8572 11.3095 11.0598 11.3095 11.3096C11.3095 11.5594 11.5121 11.762 11.7619 11.762ZM18.9523 13.8216L18.3749 12.6668H11.4823L10.9049 13.8216C10.8735 13.8843 10.8571 13.9537 10.8571 14.0239V18.5477C10.8571 20.7926 12.6837 22.6191 14.9286 22.6191C17.1735 22.6191 19 20.7926 19 18.5477V14.0239C19 13.9537 18.9837 13.8843 18.9523 13.8216ZM14.4762 20.3572C14.4762 20.6071 14.2736 20.8096 14.0238 20.8096C13.774 20.8096 13.5714 20.6071 13.5714 20.3572V14.9287C13.5714 14.6788 13.774 14.4763 14.0238 14.4763C14.2736 14.4763 14.4762 14.6788 14.4762 14.9287V20.3572ZM16.2857 20.3572C16.2857 20.6071 16.0832 20.8096 15.8333 20.8096C15.5835 20.8096 15.381 20.6071 15.381 20.3572V14.9287C15.381 14.6788 15.5835 14.4763 15.8333 14.4763C16.0832 14.4763 16.2857 14.6788 16.2857 14.9287V20.3572Z" fill="black"/>
</svg>
