<svg width="30" height="30" viewBox="0 0 30 30" fill="none" xmlns="http://www.w3.org/2000/svg">
<path d="M10.0012 15C10.0012 12.2387 12.2392 9.9996 15.0006 9.9996C17.762 9.9996 20.0012 12.2387 20.0012 15C20.0012 17.7613 17.762 20.0004 15.0006 20.0004C12.2392 20.0004 10.0012 17.7613 10.0012 15ZM7.29795 15C7.29795 19.254 10.7464 22.7023 15.0006 22.7023C19.2548 22.7023 22.7033 19.254 22.7033 15C22.7033 10.746 19.2548 7.29766 15.0006 7.29766C10.7464 7.29766 7.29795 10.746 7.29795 15ZM21.208 6.99233C21.208 7.98586 22.0138 8.79281 23.0086 8.79281C24.0022 8.79281 24.8092 7.98586 24.8092 6.99233C24.8092 5.99879 24.0034 5.19305 23.0086 5.19305C22.0138 5.19305 21.208 5.99879 21.208 6.99233ZM8.93978 27.2096C7.47728 27.143 6.68242 26.8994 6.15413 26.6935C5.45377 26.4208 4.95456 26.0961 4.42869 25.5715C3.90404 25.0469 3.57809 24.5477 3.30668 23.8473C3.10069 23.3191 2.85714 22.5242 2.7905 21.0618C2.7178 19.4806 2.70326 19.0057 2.70326 15C2.70326 10.9943 2.71901 10.5206 2.7905 8.93821C2.85714 7.47577 3.1019 6.68215 3.30668 6.15267C3.5793 5.45234 3.90404 4.95315 4.42869 4.4273C4.95335 3.90267 5.45256 3.57674 6.15413 3.30533C6.68242 3.09935 7.47728 2.85582 8.93978 2.78918C10.521 2.71648 10.996 2.70194 15.0006 2.70194C19.0064 2.70194 19.4802 2.71769 21.0626 2.78918C22.5251 2.85582 23.3188 3.10057 23.8483 3.30533C24.5486 3.57674 25.0479 3.90267 25.5737 4.4273C26.0984 4.95194 26.4231 5.45234 26.6957 6.15267C26.9017 6.68094 27.1453 7.47577 27.2119 8.93821C27.2846 10.5206 27.2992 10.9943 27.2992 15C27.2992 19.0044 27.2846 19.4794 27.2119 21.0618C27.1453 22.5242 26.9005 23.3191 26.6957 23.8473C26.4231 24.5477 26.0984 25.0469 25.5737 25.5715C25.0491 26.0961 24.5486 26.4208 23.8483 26.6935C23.32 26.8994 22.5251 27.143 21.0626 27.2096C19.4814 27.2823 19.0064 27.2968 15.0006 27.2968C10.996 27.2968 10.521 27.2823 8.93978 27.2096ZM8.81619 0.0908724C7.21919 0.16357 6.12868 0.416801 5.17509 0.787561C4.18878 1.17044 3.35272 1.68417 2.51787 2.51777C1.68424 3.35137 1.17048 4.1874 0.787592 5.17488C0.416818 6.12843 0.163577 7.2189 0.0908761 8.81583C0.0169635 10.4152 0 10.9265 0 15C0 19.0735 0.0169635 19.5848 0.0908761 21.1842C0.163577 22.7811 0.416818 23.8716 0.787592 24.8251C1.17048 25.8114 1.68302 26.6486 2.51787 27.4822C3.35151 28.3158 4.18757 28.8284 5.17509 29.2124C6.12989 29.5832 7.21919 29.8364 8.81619 29.9091C10.4168 29.9818 10.9269 30 15.0006 30C19.0755 30 19.5856 29.983 21.185 29.9091C22.782 29.8364 23.8725 29.5832 24.8261 29.2124C25.8124 28.8284 26.6485 28.3158 27.4833 27.4822C28.317 26.6486 28.8295 25.8114 29.2136 24.8251C29.5844 23.8716 29.8388 22.7811 29.9103 21.1842C29.983 19.5836 30 19.0735 30 15C30 10.9265 29.983 10.4152 29.9103 8.81583C29.8376 7.2189 29.5844 6.12843 29.2136 5.17488C28.8295 4.18861 28.317 3.35258 27.4833 2.51777C26.6497 1.68417 25.8124 1.17044 24.8273 0.787561C23.8725 0.416801 22.782 0.162359 21.1862 0.0908724C19.5868 0.0181745 19.0755 0 15.0018 0C10.9269 0 10.4168 0.0169628 8.81619 0.0908724Z" fill="white"/>
</svg>
