<svg width="27" height="32" viewBox="0 0 27 32" fill="none" xmlns="http://www.w3.org/2000/svg">
<path fill-rule="evenodd" clip-rule="evenodd" d="M25.5455 13.2727C25.5455 22.8182 13.2727 31 13.2727 31C13.2727 31 1 22.8182 1 13.2727C1 10.0178 2.29302 6.89618 4.5946 4.5946C6.89618 2.29302 10.0178 1 13.2727 1C16.5277 1 19.6493 2.29302 21.9509 4.5946C24.2524 6.89618 25.5455 10.0178 25.5455 13.2727Z" stroke="white" stroke-width="2" stroke-linecap="round" stroke-linejoin="round"/>
<path d="M13.2727 17.3636C15.5321 17.3636 17.3636 15.532 17.3636 13.2727C17.3636 11.0133 15.5321 9.18176 13.2727 9.18176C11.0134 9.18176 9.18182 11.0133 9.18182 13.2727C9.18182 15.532 11.0134 17.3636 13.2727 17.3636Z" stroke="white" stroke-width="2" stroke-linecap="round" stroke-linejoin="round"/>
</svg>
