<svg width="110" height="110" viewBox="0 0 110 110" fill="none" xmlns="http://www.w3.org/2000/svg">
<path d="M86.7969 83.5742H23.2031V26.4258H86.7969V83.5742ZM63.0352 33.4348C62.8955 33.5745 62.7847 33.7403 62.7091 33.9228C62.6335 34.1052 62.5946 34.3008 62.5946 34.4983C62.5946 34.6958 62.6335 34.8914 62.7091 35.0739C62.7847 35.2563 62.8955 35.4221 63.0352 35.5618L77.3867 49.9134C77.5264 50.053 77.6922 50.1638 77.8746 50.2394C78.0571 50.315 78.2527 50.3539 78.4502 50.3539C78.6477 50.3539 78.8433 50.315 79.0257 50.2394C79.2082 50.1638 79.374 50.053 79.5137 49.9134C79.6533 49.7737 79.7641 49.6079 79.8397 49.4254C79.9153 49.243 79.9542 49.0474 79.9542 48.8499C79.9542 48.6524 79.9153 48.4568 79.8397 48.2743C79.7641 48.0919 79.6533 47.9261 79.5137 47.7864L65.1621 33.4348C65.0225 33.2952 64.8567 33.1844 64.6742 33.1088C64.4917 33.0332 64.2961 32.9943 64.0986 32.9943C63.9011 32.9943 63.7055 33.0332 63.5231 33.1088C63.3406 33.1844 63.1748 33.2952 63.0352 33.4348ZM80.9927 40.3885L72.5592 31.9552C72.2771 31.6732 71.8946 31.5147 71.4957 31.5147C71.0968 31.5147 70.7143 31.6732 70.4322 31.9552C70.1502 32.2373 69.9917 32.6198 69.9917 33.0187C69.9917 33.4176 70.1502 33.8001 70.4322 34.0822L78.8657 42.5154C79.1478 42.7975 79.5303 42.9559 79.9292 42.9559C80.3281 42.9559 80.7106 42.7975 80.9927 42.5154C81.2747 42.2334 81.4332 41.8508 81.4332 41.452C81.4332 41.0531 81.2747 40.6705 80.9927 40.3885Z" fill="black"/>
<path d="M11.2363 20.7677C9.76691 20.7147 8.37701 20.0871 7.36554 19.0199C6.35407 17.9527 5.80183 16.5312 5.82759 15.0611C5.85335 13.591 6.45504 12.1897 7.50327 11.1586C8.55151 10.1275 9.96253 9.54897 11.4329 9.54745C12.8201 9.53195 14.1624 10.0383 15.1937 10.9661C16.225 11.894 16.87 13.1755 17.0008 14.5565C17.0407 14.9252 17.2154 15.2661 17.4914 15.5138C17.7673 15.7614 18.1251 15.8984 18.4959 15.8984H91.5266C91.8975 15.8985 92.2553 15.7615 92.5312 15.5138C92.8072 15.2661 92.982 14.9252 93.0219 14.5565C93.1551 13.1732 93.8033 11.8904 94.838 10.9625C95.8727 10.0347 97.2182 9.52963 98.6079 9.54745C100.075 9.55849 101.48 10.144 102.521 11.1784C103.562 12.2128 104.157 13.6139 104.177 15.0813C104.197 16.5488 103.642 17.9658 102.63 19.0287C101.618 20.0916 100.23 20.7159 98.7636 20.7677C98.3763 20.7843 98.0103 20.9499 97.7421 21.2298C97.4739 21.5098 97.3242 21.8826 97.3242 22.2703V87.7297C97.3242 88.1175 97.4739 88.4902 97.7421 88.7702C98.0103 89.0502 98.3763 89.2157 98.7636 89.2324C100.234 89.2821 101.626 89.9072 102.64 90.9729C103.653 92.0386 104.208 93.4599 104.185 94.9307C104.161 96.4015 103.561 97.8042 102.514 98.837C101.466 99.8697 100.055 100.45 98.584 100.453C97.1976 100.467 95.8563 99.9606 94.8261 99.0328C93.7958 98.105 93.1519 96.8239 93.0219 95.4435C92.982 95.0748 92.8072 94.7339 92.5312 94.4862C92.2553 94.2385 91.8975 94.1015 91.5266 94.1016H18.4959C18.1251 94.1016 17.7673 94.2386 17.4914 94.4863C17.2154 94.7339 17.0407 95.0748 17.0008 95.4435C16.8675 96.8268 16.2193 98.1096 15.1846 99.0374C14.15 99.9652 12.8045 100.47 11.4148 100.453C9.94586 100.447 8.53777 99.865 7.49287 98.8324C6.44799 97.7999 5.84962 96.3988 5.82625 94.93C5.80288 93.4612 6.35636 92.0417 7.36787 90.9765C8.37938 89.9112 9.76825 89.285 11.2363 89.2324C11.6237 89.2157 11.9896 89.0502 12.2579 88.7702C12.5261 88.4902 12.6758 88.1175 12.6758 87.7297V22.2703C12.6758 21.8826 12.5261 21.5098 12.2579 21.2298C11.9896 20.9499 11.6237 20.7843 11.2363 20.7677ZM20.1953 85.0781C20.1953 85.477 20.3537 85.8595 20.6358 86.1416C20.9178 86.4236 21.3003 86.582 21.6992 86.582H88.3008C88.6996 86.582 89.0821 86.4236 89.3642 86.1416C89.6462 85.8595 89.8047 85.477 89.8047 85.0781V24.9219C89.8047 24.523 89.6462 24.1405 89.3642 23.8585C89.0821 23.5764 88.6996 23.418 88.3008 23.418H21.6992C21.3003 23.418 20.9178 23.5764 20.6358 23.8585C20.3537 24.1405 20.1953 24.523 20.1953 24.9219V85.0781Z" fill="black"/>
</svg>
