<svg width="25" height="25" viewBox="0 0 25 25" fill="none" xmlns="http://www.w3.org/2000/svg">
<path d="M8.28792 19.9697C7.76519 20.178 7.27655 19.9886 7.05307 19.8598C6.67807 19.6439 6.42049 19.2727 6.34474 18.8485L6.08716 17.3977L3.59852 20.8598C3.37125 21.125 3.57201 21.7348 4.12125 21.6174L7.2008 20.7954L8.03034 23.875C8.09095 24.1969 8.67807 24.4697 8.94701 23.9507L10.7046 20.053L10.0872 19.3219L8.28792 19.9697ZM22.2614 20.8598L19.394 16.875L18.8713 16.9697L18.5341 18.8485C18.4584 19.2765 18.197 19.6439 17.822 19.8636C17.5985 19.9924 17.2084 20.1704 16.5909 19.9735L14.8296 19.3371L16.9129 23.9507C17 24.2348 17.6061 24.4621 17.8296 23.875L18.6516 20.7954L21.7311 21.6174C22.3561 21.6969 22.4508 21.106 22.2614 20.8598ZM12.4432 5.64392C9.74625 5.64392 7.54928 7.84089 7.54928 10.5379C7.54928 13.2348 9.74625 15.4318 12.4432 15.4318C15.1402 15.4318 17.3372 13.2348 17.3372 10.5379C17.3372 7.8371 15.1402 5.64392 12.4432 5.64392ZM14.4811 13.3863L12.4432 11.9053L10.4053 13.3863L11.1856 10.9886L9.14777 9.50756H11.6667L12.447 7.10983L13.2273 9.50756H15.7463L13.7084 10.9886L14.4811 13.3863Z" fill="black"/>
<path d="M17.5757 18.6743L18.0303 16.1213L20.5795 15.6667C21.0492 15.5114 21.0038 15.1554 20.9545 15.019L20.0757 12.5834L22.0568 10.9091C22.3788 10.5379 22.1666 10.2538 22.0568 10.1629L20.0757 8.4887L20.9545 6.0493C21.0038 5.91294 21.0303 5.519 20.5795 5.40157L18.0303 4.94703L17.5757 2.394C17.5492 2.25385 17.3333 1.88642 16.928 2.019L14.4886 2.89779L12.8144 0.916726C12.6288 0.697029 12.2538 0.697029 12.0682 0.916726L10.3939 2.89779L7.95452 2.019C7.73861 1.93567 7.37876 2.03036 7.30679 2.394L6.85224 4.94703L4.29922 5.40157C3.8977 5.48491 3.84467 5.87885 3.92421 6.0493L4.803 8.4887L2.82194 10.1629C2.51512 10.466 2.67043 10.7993 2.82194 10.9091L4.803 12.5796L3.92421 15.019C3.87497 15.1554 3.83331 15.5417 4.29922 15.6667L6.85224 16.1213L7.30679 18.6743C7.42421 19.1175 7.81815 19.0985 7.95452 19.0493L10.3939 18.1705L12.0682 20.1516C12.1591 20.2614 12.4697 20.4773 12.8144 20.1516L14.4886 18.1705L16.928 19.0493C17.3977 19.1591 17.5492 18.8182 17.5757 18.6743ZM12.4432 16.4091C9.20452 16.4091 6.57194 13.7766 6.57194 10.5379C6.57194 7.2993 9.20452 4.66673 12.4432 4.66673C15.6818 4.66673 18.3144 7.2993 18.3144 10.5379C18.3144 13.7766 15.6818 16.4091 12.4432 16.4091Z" fill="black"/>
</svg>
