<svg width="110" height="110" viewBox="0 0 110 110" fill="none" xmlns="http://www.w3.org/2000/svg">
<path d="M23.2031 24.8682C24.1216 24.8682 24.8682 24.1216 24.8682 23.2031C24.8682 22.2847 24.1216 21.5381 23.2031 21.5381C22.2847 21.5381 21.5381 22.2847 21.5381 23.2031C21.5381 24.1216 22.2847 24.8682 23.2031 24.8682ZM23.2031 23.1494C23.2332 23.1494 23.2568 23.173 23.2568 23.2031C23.2568 23.2332 23.2332 23.2568 23.2031 23.2568C23.173 23.2568 23.1494 23.2332 23.1494 23.2031C23.1494 23.173 23.173 23.1494 23.2031 23.1494ZM86.7969 24.8682C87.7153 24.8682 88.4619 24.1216 88.4619 23.2031C88.4619 22.2847 87.7153 21.5381 86.7969 21.5381C85.8784 21.5381 85.1318 22.2847 85.1318 23.2031C85.1318 24.1216 85.8784 24.8682 86.7969 24.8682ZM86.7969 23.1494C86.827 23.1494 86.8506 23.173 86.8506 23.2031C86.8506 23.2332 86.827 23.2568 86.7969 23.2568C86.7668 23.2568 86.7432 23.2332 86.7432 23.2031C86.7432 23.173 86.7668 23.1494 86.7969 23.1494ZM23.2031 85.1318C22.2847 85.1318 21.5381 85.8784 21.5381 86.7969C21.5381 87.7153 22.2847 88.4619 23.2031 88.4619C24.1216 88.4619 24.8682 87.7153 24.8682 86.7969C24.8682 85.8784 24.1216 85.1318 23.2031 85.1318ZM23.2031 86.8506C23.173 86.8506 23.1494 86.827 23.1494 86.7969C23.1494 86.7668 23.173 86.7432 23.2031 86.7432C23.2332 86.7432 23.2568 86.7668 23.2568 86.7969C23.2568 86.827 23.2332 86.8506 23.2031 86.8506ZM86.7969 85.1318C85.8784 85.1318 85.1318 85.8784 85.1318 86.7969C85.1318 87.7153 85.8784 88.4619 86.7969 88.4619C87.7153 88.4619 88.4619 87.7153 88.4619 86.7969C88.4619 85.8784 87.7153 85.1318 86.7969 85.1318ZM86.7969 86.8506C86.7668 86.8506 86.7432 86.827 86.7432 86.7969C86.7432 86.7668 86.7668 86.7432 86.7969 86.7432C86.827 86.7432 86.8506 86.7668 86.8506 86.7969C86.8506 86.827 86.827 86.8506 86.7969 86.8506ZM79.8768 30.1232C73.2316 23.4792 64.3973 19.8193 55 19.8193C45.6027 19.8193 36.7684 23.4792 30.1232 30.1232C23.4792 36.7684 19.8193 45.6027 19.8193 55C19.8193 64.3973 23.4792 73.2316 30.1232 79.8768C36.7684 86.5219 45.6027 90.1807 55 90.1807C64.3973 90.1807 73.2316 86.5208 79.8768 79.8768C86.5219 73.2316 90.1807 64.3973 90.1807 55C90.1807 45.6027 86.5208 36.7684 79.8768 30.1232ZM55 88.5693C36.4901 88.5693 21.4307 73.5099 21.4307 55C21.4307 36.4901 36.4901 21.4307 55 21.4307C73.5099 21.4307 88.5693 36.4901 88.5693 55C88.5693 73.5099 73.5099 88.5693 55 88.5693Z" fill="black"/>
<path d="M81.6943 55C81.6943 69.7189 69.7189 81.6943 55 81.6943V83.3057C62.5604 83.3057 69.6685 80.3612 75.0148 75.0148C80.3612 69.6685 83.3057 62.5604 83.3057 55H81.6943ZM55 26.6943C47.4396 26.6943 40.3315 29.6388 34.9852 34.9852C29.6388 40.3315 26.6943 47.4396 26.6943 55H28.3057C28.3057 40.2811 40.2811 28.3057 55 28.3057V26.6943ZM67.8369 55C67.8369 47.922 62.078 42.1631 55 42.1631C47.922 42.1631 42.1631 47.922 42.1631 55C42.1631 62.078 47.922 67.8369 55 67.8369C62.078 67.8369 67.8369 62.078 67.8369 55ZM43.7744 55C43.7744 48.8104 48.8104 43.7744 55 43.7744C61.1896 43.7744 66.2256 48.8104 66.2256 55C66.2256 61.1896 61.1896 66.2256 55 66.2256C48.8104 66.2256 43.7744 61.1896 43.7744 55Z" fill="black"/>
<path d="M92.0294 81.168C90.692 79.8306 90.4202 77.7595 91.3688 76.131C95.0888 69.7426 97.0557 62.4357 97.0557 55.0011C97.0557 47.5664 95.0888 40.2596 91.3688 33.8701C90.4202 32.2416 90.692 30.1705 92.0294 28.8331C93.4807 27.3818 94.2788 25.4536 94.2788 23.4019C94.2788 21.3501 93.4796 19.4208 92.0294 17.9706C89.0355 14.9768 84.1629 14.9768 81.1669 17.9706C79.8295 19.308 77.7573 19.5809 76.1288 18.6323C69.7415 14.9112 62.4347 12.9443 55 12.9443C47.5653 12.9443 40.2585 14.9112 33.8701 18.6313C32.2416 19.5798 30.1694 19.308 28.832 17.9695C25.8371 14.9757 20.9645 14.9757 17.9695 17.9695C16.5183 19.4208 15.7201 21.349 15.7201 23.4008C15.7201 25.4525 16.5193 27.3818 17.9695 28.832C19.3069 30.1694 19.5787 32.2405 18.6302 33.869C14.9112 40.2585 12.9443 47.5653 12.9443 55C12.9443 62.4347 14.9112 69.7415 18.6313 76.1299C19.5798 77.7584 19.308 79.8295 17.9706 81.1669C16.5193 82.6182 15.7201 84.5464 15.7201 86.5981C15.7201 88.6499 16.5193 90.5792 17.9706 92.0283C19.4208 93.4796 21.3501 94.2788 23.4019 94.2788C25.4536 94.2788 27.3818 93.4796 28.8331 92.0283C30.1705 90.6909 32.2416 90.4191 33.8701 91.3677C40.2585 95.0888 47.5653 97.0557 55 97.0557C62.4347 97.0557 69.7415 95.0888 76.131 91.3688C77.7595 90.4202 79.8306 90.692 81.168 92.0294C82.6192 93.4807 84.5475 94.2799 86.5992 94.2799C88.651 94.2799 90.5792 93.4807 92.0294 92.0294C93.4807 90.5792 94.2799 88.6499 94.2799 86.5981C94.2799 84.5475 93.4807 82.6182 92.0294 81.168ZM90.8907 90.8907C89.7445 92.0369 88.2202 92.6685 86.5992 92.6685C84.9782 92.6685 83.4539 92.0369 82.3066 90.8907C80.4525 89.0366 77.579 88.6606 75.3189 89.9766C69.1765 93.5537 62.15 95.4443 54.9989 95.4443C47.8479 95.4443 40.8225 93.5537 34.679 89.9766C33.7777 89.4513 32.7776 89.1956 31.7851 89.1956C30.2887 89.1956 28.8063 89.7757 27.6923 90.8907C26.5461 92.0369 25.0218 92.6685 23.3997 92.6685C21.7787 92.6685 20.2544 92.0369 19.1082 90.8896C17.962 89.7435 17.3304 88.2202 17.3304 86.5992C17.3304 84.9782 17.962 83.4539 19.1082 82.3066C20.9623 80.4525 21.3383 77.579 20.0224 75.3189C16.4452 69.1765 14.5546 62.15 14.5546 54.9989C14.5546 47.8479 16.4452 40.8225 20.0224 34.679C21.3383 32.4188 20.9623 29.5453 19.1082 27.6912C17.962 26.545 17.3304 25.0207 17.3304 23.3986C17.3304 21.7766 17.962 20.2533 19.1082 19.1061C21.4736 16.7396 25.3247 16.7406 27.6912 19.1061C29.5453 20.9612 32.4188 21.3372 34.679 20.0213C40.8214 16.4441 47.8479 14.5535 54.9979 14.5535C62.1479 14.5535 69.1743 16.4441 75.3167 20.0213C77.5769 21.3372 80.4504 20.9612 82.3045 19.1071C84.671 16.7406 88.5221 16.7406 90.8875 19.1071C92.0337 20.2533 92.6653 21.7776 92.6653 23.3997C92.6653 25.0218 92.0337 26.545 90.8875 27.6923C89.0334 29.5464 88.6574 32.4199 89.9733 34.6801C93.5505 40.8225 95.4411 47.8489 95.4411 55C95.4411 62.1511 93.5505 69.1765 89.9733 75.3199C88.6574 77.5801 89.0334 80.4536 90.8875 82.3077C92.0337 83.4539 92.6653 84.9782 92.6653 86.6003C92.6686 88.2202 92.0369 89.7445 90.8907 90.8907Z" fill="black"/>
</svg>
