<svg width="109" height="111" viewBox="0 0 109 111" fill="none" xmlns="http://www.w3.org/2000/svg">
<path d="M95.934 90.9506H85.7912C84.8945 90.9506 84.0345 90.5852 83.4005 89.9347C82.7664 89.2841 82.4102 88.4018 82.4102 87.4819C82.4102 86.5619 82.7664 85.6796 83.4005 85.0291C84.0345 84.3786 84.8945 84.0131 85.7912 84.0131H92.553V26.9869H15.6368V84.0131H66.7734C67.6701 84.0131 68.5301 84.3786 69.1641 85.0291C69.7982 85.6796 70.1544 86.5619 70.1544 87.4819C70.1544 88.4018 69.7982 89.2841 69.1641 89.9347C68.5301 90.5852 67.6701 90.9506 66.7734 90.9506H12.2559C11.3592 90.9506 10.4992 90.5852 9.86519 89.9347C9.23114 89.2841 8.87494 88.4018 8.87494 87.4819V23.5181C8.87494 22.5982 9.23114 21.7159 9.86519 21.0653C10.4992 20.4148 11.3592 20.0494 12.2559 20.0494H95.934C96.8307 20.0494 97.6906 20.4148 98.3247 21.0653C98.9587 21.7159 99.3149 22.5982 99.3149 23.5181V87.4819C99.3149 88.4018 98.9587 89.2841 98.3247 89.9347C97.6906 90.5852 96.8307 90.9506 95.934 90.9506Z" fill="black"/>
<path d="M61.4823 77.4919H46.7076C45.8109 77.4919 44.951 77.1264 44.3169 76.4759C43.6829 75.8254 43.3267 74.9431 43.3267 74.0231C43.3267 73.1032 43.6829 72.2209 44.3169 71.5704C44.951 70.9198 45.8109 70.5544 46.7076 70.5544H61.4823C62.379 70.5544 63.2389 70.9198 63.873 71.5704C64.507 72.2209 64.8632 73.1032 64.8632 74.0231C64.8632 74.9431 64.507 75.8254 63.873 76.4759C63.2389 77.1264 62.379 77.4919 61.4823 77.4919Z" fill="#0F0F0F"/>
</svg>
