<svg width="30" height="31" viewBox="0 0 30 31" fill="none" xmlns="http://www.w3.org/2000/svg">
<path fill-rule="evenodd" clip-rule="evenodd" d="M25.6291 4.37926C22.809 1.55677 19.0584 0.00158642 15.0626 0C6.82939 0 0.128541 6.69829 0.125246 14.9316C0.124148 17.5634 0.812005 20.1324 2.1191 22.3968L0 30.1349L7.91853 28.0584C10.1002 29.248 12.5567 29.8749 15.0567 29.876H15.0628C23.2952 29.876 29.9967 23.1768 30 14.9435C30.0016 10.9535 28.4493 7.20175 25.6291 4.37926ZM15.0628 27.3539H15.0577C12.83 27.3531 10.6449 26.7548 8.73875 25.624L8.28536 25.355L3.58646 26.5872L4.84071 22.0072L4.54547 21.5377C3.30269 19.5616 2.64628 17.2776 2.64725 14.9325C2.64998 8.08934 8.2195 2.52201 15.0677 2.52201C18.3838 2.52327 21.501 3.81596 23.8451 6.16191C26.1891 8.50787 27.4793 11.6262 27.478 14.9425C27.4752 21.7862 21.9057 27.3539 15.0628 27.3539ZM21.8728 18.0585C21.4996 17.8718 19.6646 16.9691 19.3225 16.8446C18.9804 16.7201 18.7316 16.6579 18.4827 17.0314C18.2339 17.4049 17.5187 18.2453 17.3009 18.4943C17.0832 18.7433 16.8655 18.7745 16.4923 18.5877C16.119 18.401 14.9164 18.007 13.4908 16.7358C12.3813 15.7466 11.6322 14.5246 11.4145 14.1511C11.1968 13.7776 11.3914 13.5756 11.5782 13.3896C11.7461 13.2224 11.9514 12.9538 12.1381 12.7359C12.3246 12.5181 12.3868 12.3624 12.5112 12.1134C12.6357 11.8644 12.5735 11.6465 12.4801 11.4598C12.3868 11.273 11.6404 9.43649 11.3294 8.68945C11.0265 7.96189 10.7187 8.06033 10.4896 8.04894C10.2722 8.03812 10.0231 8.0358 9.77432 8.0358C9.5255 8.0358 9.12116 8.1292 8.77902 8.5027C8.43693 8.87624 7.47279 9.77892 7.47279 11.6154C7.47279 13.4519 8.81014 15.226 8.99677 15.4751C9.18336 15.7241 11.6286 19.4928 15.3726 21.109C16.2631 21.4934 16.9583 21.7229 17.5003 21.895C18.3945 22.1789 19.2081 22.1388 19.8512 22.0428C20.5683 21.9357 22.0594 21.1402 22.3704 20.2686C22.6815 19.397 22.6815 18.65 22.5881 18.4944C22.4949 18.3387 22.2461 18.2453 21.8728 18.0585Z" fill="black"/>
</svg>
