<svg width="30" height="30" viewBox="0 0 30 30" fill="none" xmlns="http://www.w3.org/2000/svg">
<path fill-rule="evenodd" clip-rule="evenodd" d="M25.6291 4.35966C22.809 1.5498 19.0584 0.00157932 15.0626 0C6.82939 0 0.128541 6.6683 0.125246 14.8647C0.124148 17.4848 0.812005 20.0423 2.1191 22.2966L0 30L7.91853 27.9328C10.1002 29.1171 12.5567 29.7412 15.0567 29.7422H15.0628C23.2952 29.7422 29.9967 23.0731 30 14.8766C30.0016 10.9045 28.4493 7.16952 25.6291 4.35966ZM15.0628 27.2315H15.0577C12.83 27.2306 10.6449 26.635 8.73875 25.5093L8.28536 25.2415L3.58646 26.4682L4.84071 21.9087L4.54547 21.4413C3.30269 19.474 2.64628 17.2002 2.64725 14.8657C2.64998 8.05313 8.2195 2.51072 15.0677 2.51072C18.3838 2.51197 21.501 3.79888 23.8451 6.13433C26.1891 8.46979 27.4793 11.5742 27.478 14.8756C27.4752 21.6887 21.9057 27.2315 15.0628 27.2315ZM21.8728 17.9777C21.4996 17.7918 19.6646 16.8932 19.3225 16.7692C18.9804 16.6453 18.7316 16.5833 18.4827 16.9552C18.2339 17.327 17.5187 18.1637 17.3009 18.4115C17.0832 18.6595 16.8655 18.6905 16.4923 18.5045C16.119 18.3186 14.9164 17.9264 13.4908 16.6609C12.3813 15.6761 11.6322 14.4596 11.4145 14.0878C11.1968 13.7159 11.3914 13.5148 11.5782 13.3297C11.7461 13.1632 11.9514 12.8959 12.1381 12.6789C12.3246 12.462 12.3868 12.3071 12.5112 12.0592C12.6357 11.8113 12.5735 11.5944 12.4801 11.4085C12.3868 11.2225 11.6404 9.39426 11.3294 8.65056C11.0265 7.92626 10.7187 8.02425 10.4896 8.01292C10.2722 8.00214 10.0231 7.99984 9.77432 7.99984C9.5255 7.99984 9.12116 8.09281 8.77902 8.46464C8.43693 8.83651 7.47279 9.73515 7.47279 11.5634C7.47279 13.3916 8.81014 15.1579 8.99677 15.4058C9.18336 15.6537 11.6286 19.4056 15.3726 21.0145C16.2631 21.3972 16.9583 21.6257 17.5003 21.797C18.3945 22.0796 19.2081 22.0397 19.8512 21.9441C20.5683 21.8375 22.0594 21.0455 22.3704 20.1779C22.6815 19.3102 22.6815 18.5665 22.5881 18.4116C22.4949 18.2566 22.2461 18.1637 21.8728 17.9777Z" fill="white"/>
</svg>
